<?xml version="1.0" encoding="iso-8859-1"?>
<!-- Generator: Adobe Illustrator 19.0.0, SVG Export Plug-In . SVG Version: 6.00 Build 0)  -->
<svg version="1.1" id="Capa_1" xmlns="http://www.w3.org/2000/svg" xmlns:xlink="http://www.w3.org/1999/xlink" x="0px" y="0px"
	 viewBox="0 0 512 512" style="enable-background:new 0 0 512 512;" xml:space="preserve">
<g>
	<g>
		<path d="M444.875,109.792L338.167,3.125c-2-2-4.708-3.125-7.542-3.125H106.667C83.135,0,64,19.135,64,42.667v426.667
			C64,492.865,83.135,512,106.667,512h298.667C428.865,512,448,492.865,448,469.333v-352C448,114.5,446.875,111.792,444.875,109.792
			z M224,202.667c0-5.896,4.771-10.667,10.667-10.667h42.667c5.896,0,10.667,4.771,10.667,10.667v42.667
			c0,5.896-4.771,10.667-10.667,10.667h-42.667c-5.896,0-10.667-4.771-10.667-10.667V202.667z M128,224c0-17.646,14.354-32,32-32h32
			c5.896,0,10.667,4.771,10.667,10.667v42.667c0,5.896-4.771,10.667-10.667,10.667h-53.333c-5.896,0-10.667-4.771-10.667-10.667V224
			z M192,437.333c0,5.896-4.771,10.667-10.667,10.667H160c-17.646,0-32-14.354-32-32v-21.333c0-5.896,4.771-10.667,10.667-10.667
			h42.667c5.896,0,10.667,4.771,10.667,10.667V437.333z M277.333,437.333c0,5.896-4.771,10.667-10.667,10.667H224
			c-5.896,0-10.667-4.771-10.667-10.667v-42.667c0-5.896,4.771-10.667,10.667-10.667h42.667c5.896,0,10.667,4.771,10.667,10.667
			V437.333z M384,416c0,17.646-14.354,32-32,32h-42.667c-5.896,0-10.667-4.771-10.667-10.667v-64
			c0-5.885-4.781-10.667-10.667-10.667H138.667c-5.896,0-10.667-4.771-10.667-10.667v-64c0-5.896,4.771-10.667,10.667-10.667
			h234.667c5.896,0,10.667,4.771,10.667,10.667V416z M384,245.333c0,5.896-4.771,10.667-10.667,10.667H320
			c-5.896,0-10.667-4.771-10.667-10.667v-42.667c0-5.896,4.771-10.667,10.667-10.667h32c17.646,0,32,14.354,32,32V245.333z"/>
	</g>
</g>
<g>
</g>
<g>
</g>
<g>
</g>
<g>
</g>
<g>
</g>
<g>
</g>
<g>
</g>
<g>
</g>
<g>
</g>
<g>
</g>
<g>
</g>
<g>
</g>
<g>
</g>
<g>
</g>
<g>
</g>
</svg>
